# xmcd
# Track frame offsets:
# 150
# 17072
# 38247
# 52852
# 74335
# 89340
# 106752
# 125325
# 141187
# 154462
#
# Disc length: 2273 seconds
# Revision: 0
# Processed by: cddbd v1.5.2PL0 Copyright (c) Steve Scherf et al.
# Submitted via: VisiTrax 2.11.0.264 - For more info visit www.synapsa.com
#
DISCID=8108df0a
DTITLE=Watson, Billy - Numero Cinco
DYEAR=2005
DGENRE=Blues
TTITLE0=Murmur Low
TTITLE1=Zapatos Baratos Otra Vez
TTITLE2=Daddy Come Home
TTITLE3=Return For Refill
TTITLE4=Whiskey Headed Blues
TTITLE5=Aye Poppy
TTITLE6=Love Me One Time
TTITLE7=Allergy Blues
TTITLE8=You Killin' Me
TTITLE9=Night Fishin'
EXTD=
EXTT0=
EXTT1=
EXTT2=
EXTT3=
EXTT4=
EXTT5=
EXTT6=
EXTT7=
EXTT8=
EXTT9=
PLAYORDER=
